<svg class="img-fluid" id="outputsvg" xmlns="http://www.w3.org/2000/svg" width="163" height="146" viewBox="0 0 1630 1460"><g id="l2h9W67ExePILnGLAiL0kUf" fill="rgb(65,159,255)" style="transform: none;"><g style="transform: none;"><path id="p15s0UJRZf" d="M1118 1407 c-55 -21 -119 -62 -152 -96 l-30 -31 -443 0 -443 0 0 -615 0 -615 725 0 725 0 0 366 0 365 35 46 c20 26 45 77 57 116 52 173 -22 351 -184 437 -57 31 -72 34 -158 37 -63 2 -107 -1 -132 -10z m-28 -260 c0 -16 -9 -28 -25 -35 -24 -11 -25 -10 -25 23 0 31 3 35 25 35 20 0 25 -5 25 -23z m-700 -47 l0 -60 -35 0 -35 0 0 60 0 60 35 0 35 0 0 -60z m260 -1 l0 -60 -52 3 -53 3 -3 44 c-5 65 0 71 58 71 l50 0 0 -61z m186 45 c-3 -9 -6 -36 -6 -60 0 -32 -4 -44 -15 -44 -12 0 -15 13 -15 60 0 54 2 60 21 60 15 0 19 -4 15 -16z m594 -169 c0 -31 -3 -35 -25 -35 -46 0 -28 56 23 69 1 1 2 -15 2 -34z m-558 -122 c10 -20 16 -38 15 -39 -1 -2 -27 13 -57 32 -46 29 -63 34 -112 34 -49 0 -63 -4 -83 -25 -25 -24 -25 -27 -25 -190 0 -163 0 -166 25 -190 20 -21 34 -25 83 -25 53 0 65 5 148 56 125 79 124 77 124 145 l0 58 58 -27 c53 -25 66 -27 195 -27 l137 0 0 -107 0 -108 -605 0 -605 0 0 225 0 225 343 0 342 -1 17 -36z m-482 -623 l0 -60 -35 0 -35 0 0 60 0 60 35 0 35 0 0 -60z m260 0 l0 -60 -55 0 -55 0 0 53 c0 30 3 57 7 60 3 4 28 7 55 7 l48 0 0 -60z m260 0 l0 -60 -55 0 -55 0 0 60 0 60 55 0 55 0 0 -60z m260 0 l0 -60 -55 0 -55 0 0 60 0 60 55 0 55 0 0 -60z m210 0 l0 -60 -30 0 -30 0 0 60 0 60 30 0 30 0 0 -60z"></path></g></g><g id="l5UMV7P1Y2mDMFXhdw26YEX" fill="rgb(254,254,255)" style="transform: none;"><g style="transform: none;"><path id="pGTyy9oFw" d="M1187 1276 c-26 -7 -66 -28 -88 -46 -35 -28 -44 -31 -65 -21 l-24 11 0 -90 c0 -50 3 -90 8 -90 4 0 40 20 81 44 l75 45 -27 12 c-35 16 -30 28 19 56 73 42 153 26 208 -41 20 -25 22 -25 43 -8 l23 17 -26 33 c-31 39 -96 78 -144 85 -19 3 -56 0 -83 -7z"></path><path id="pKcPEysDJ" d="M140 1100 l0 -90 30 0 30 0 0 90 0 90 -30 0 -30 0 0 -90z"></path><path id="pxcWmQfRl" d="M290 1100 l0 -90 65 0 65 0 0 90 0 90 -65 0 -65 0 0 -90z"></path><path id="pihd75x3c" d="M514 1177 c-3 -8 -4 -47 -2 -88 l3 -74 83 -3 82 -3 0 91 0 90 -80 0 c-58 0 -82 -4 -86 -13z"></path><path id="pA7RAjtyk" d="M770 1100 l0 -90 45 0 45 0 0 43 c0 24 6 65 14 90 l14 47 -59 0 -59 0 0 -90z"></path><path id="p179SLcowe" d="M1371 1026 l-75 -45 27 -12 c35 -16 30 -28 -19 -56 -72 -42 -166 -23 -208 42 -16 24 -18 24 -41 9 l-25 -16 21 -30 c73 -102 212 -120 316 -41 39 30 49 33 69 24 l24 -11 0 90 c0 50 -3 90 -7 90 -5 0 -41 -20 -82 -44z"></path><path id="p55lA8SgB" d="M140 665 l0 -255 635 0 635 0 0 154 0 154 -52 -20 c-83 -31 -203 -23 -290 20 -72 35 -135 97 -165 163 l-18 38 -372 1 -373 0 0 -255z m698 128 c105 -64 122 -82 122 -134 0 -43 -6 -49 -124 -123 -101 -63 -134 -69 -171 -31 -24 23 -25 29 -25 160 0 131 1 137 25 160 36 37 68 31 173 -32z"></path><path id="p1AxOEbvvt" d="M730 665 c0 -66 3 -84 13 -79 78 48 118 77 111 84 -5 4 -35 24 -66 44 l-58 37 0 -86z"></path><path id="pr6R7SO8e" d="M140 230 l0 -90 30 0 30 0 0 90 0 90 -30 0 -30 0 0 -90z"></path><path id="p1B6adEfuz" d="M290 230 l0 -90 65 0 65 0 0 90 0 90 -65 0 -65 0 0 -90z"></path><path id="prZrnDReR" d="M517 313 c-4 -3 -7 -44 -7 -90 l0 -83 85 0 85 0 0 90 0 90 -78 0 c-43 0 -82 -3 -85 -7z"></path><path id="p17bFDsCHa" d="M770 230 l0 -90 85 0 85 0 0 90 0 90 -85 0 -85 0 0 -90z"></path><path id="p1FHJf2mQ" d="M1030 230 l0 -90 85 0 85 0 0 90 0 90 -85 0 -85 0 0 -90z"></path><path id="ps7SmE5BB" d="M1290 230 l0 -90 60 0 60 0 0 90 0 90 -60 0 -60 0 0 -90z"></path></g></g></svg>